<?xml version="1.0" encoding="utf-8"?>
<!-- Generator: Adobe Illustrator 26.0.2, SVG Export Plug-In . SVG Version: 6.00 Build 0)  -->
<svg version="1.1" id="レイヤー_1" xmlns="http://www.w3.org/2000/svg" xmlns:xlink="http://www.w3.org/1999/xlink" x="0px"
	 y="0px" viewBox="0 0 325 230" style="enable-background:new 0 0 325 230;" xml:space="preserve">
<path d="M92.841,141.246c0.522-0.522,1.37-0.522,1.891,0l62.064,62.063l11.767-11.768l-16.664-16.664l56.54-56.539
	c0.324-0.323,0.692-0.391,0.945-0.391c0.253,0,0.622,0.068,0.946,0.392l97.909,97.909l11.768-11.768l-97.909-97.91
	c-3.396-3.395-7.91-5.266-12.713-5.266c-4.803,0-9.317,1.87-12.713,5.266l-56.54,56.539L106.5,129.478
	c-7.01-7.009-18.415-7.009-25.426,0L4.606,205.946l11.768,11.768L92.841,141.246z"/>
<path d="M209.365,13.001L209.365,13.001c-15.816,0-28.638,12.822-28.638,28.638c0,4.03,0.832,7.865,2.335,11.344
	c0.694,1.609,2.624,4.801,2.693,4.913c5.905,9.537,12.197,19.307,18.328,29.077c1.469,2.341,3.376,3.511,5.282,3.511l0,0
	c1.906,0.001,3.812-1.17,5.282-3.511c6.131-9.77,12.423-19.54,18.328-29.077c0.069-0.112,1.999-3.304,2.694-4.913
	c1.502-3.479,2.335-7.314,2.335-11.344C238.004,25.823,225.182,13.001,209.365,13.001z M209.365,54.016
	c-6.754,0-12.229-5.476-12.229-12.23c0-6.754,5.475-12.229,12.229-12.229c6.754,0,12.23,5.475,12.23,12.229
	C221.595,48.54,216.12,54.016,209.365,54.016z"/>
</svg>
