<?xml version="1.0" encoding="UTF-8"?> <!-- Generator: Adobe Illustrator 26.0.1, SVG Export Plug-In . SVG Version: 6.00 Build 0) --> <svg xmlns="http://www.w3.org/2000/svg" xmlns:xlink="http://www.w3.org/1999/xlink" version="1.1" id="レイヤー_1" x="0px" y="0px" viewBox="0 0 229 201.882" style="enable-background:new 0 0 229 201.882;" xml:space="preserve"> <path id="icon:5" d="M73.289,46.713v72.964c0,2.675-2.194,4.903-4.869,4.903h-3.909c-2.709,0-4.903-2.229-4.903-4.903V73.115h-4.56 v112.634c0,2.709-2.194,4.903-4.869,4.903h-5.863c-2.709,0-4.903-2.194-4.903-4.903v-58.254h-4.869v58.254 c0,2.709-2.194,4.903-4.903,4.903h-5.863c-2.675,0-4.869-2.194-4.869-4.903V73.115h-5.212v46.562c0,2.675-2.194,4.903-4.903,4.903 H4.885c-2.675,0-4.869-2.229-4.869-4.903V46.713c0-2.675,2.194-4.869,4.869-4.869H68.42C71.094,41.845,73.289,44.039,73.289,46.713z M228.74,116.386l-20.093-70.118c-0.754-2.606-3.463-4.115-6.034-3.36l-2.16,0.617l-0.069-0.617h-40.322 c-2.572-0.754-5.315,0.754-6.035,3.36l-20.092,70.118c-0.72,2.572,0.789,5.315,3.36,6.034l3.772,1.097 c2.572,0.72,5.28-0.789,6.035-3.36l7.68-26.847l-4.492,42.825h14.264v49.614c0,2.709,2.194,4.903,4.903,4.903h5.863 c2.674,0,4.869-2.194,4.869-4.903v-49.614h4.903v49.614c0,2.709,2.194,4.903,4.869,4.903h5.863c2.709,0,4.903-2.194,4.903-4.903 v-49.614h11.383l-6.309-50.162l9.772,34.185c0.754,2.572,3.463,4.08,6.035,3.36l3.772-1.097 C227.951,121.7,229.46,118.957,228.74,116.386z M36.979,35.98c9.713,0,17.587-7.874,17.587-17.587S46.691,0.806,36.979,0.806 S19.392,8.68,19.392,18.393S27.266,35.98,36.979,35.98z M180.685,35.98c9.713,0,17.587-7.874,17.587-17.587 s-7.874-17.587-17.587-17.587s-17.587,7.874-17.587,17.587S170.972,35.98,180.685,35.98z M109.546,0.806h-7.53v200.936h7.53V0.806z"></path> </svg> 