<?xml version="1.0" encoding="utf-8"?>
<!-- Generator: Adobe Illustrator 26.0.2, SVG Export Plug-In . SVG Version: 6.00 Build 0)  -->
<svg version="1.1" id="レイヤー_1" xmlns="http://www.w3.org/2000/svg" xmlns:xlink="http://www.w3.org/1999/xlink" x="0px"
	 y="0px" viewBox="0 0 325 230" style="enable-background:new 0 0 325 230;" xml:space="preserve">
<style type="text/css">
	.st0{fill:#040000;}
</style>
<path d="M151.899,104.225l56.54-56.539c0.324-0.323,0.692-0.391,0.945-0.391c0.253,0,0.622,0.068,0.946,0.392l97.909,97.909
	l11.768-11.768l-97.909-97.91c-3.396-3.395-7.91-5.266-12.713-5.266c-4.803,0-9.317,1.87-12.713,5.266l-56.54,56.539L106.5,58.826
	c-7.01-7.009-18.415-7.009-25.426,0L4.606,135.295l11.768,11.768l76.468-76.468c0.522-0.522,1.37-0.522,1.891,0l45.614,45.613
	L151.899,104.225z"/>
<polyline class="st0" points="146.607,146.062 190.607,163.062 151.607,180.062 197.607,200.062 146.607,200.062 107.607,180.062 
	158.607,163.062 118.607,146.062 160.607,128.062 140.346,116.207 145.107,111.062 179.607,129.062 "/>
</svg>
